<?xml version="1.0" standalone="no"?>
<!DOCTYPE svg PUBLIC "-//W3C//DTD SVG 20010904//EN"
 "http://www.w3.org/TR/2001/REC-SVG-20010904/DTD/svg10.dtd">
<svg version="1.0" xmlns="http://www.w3.org/2000/svg"
 width="300.000000pt" height="300.000000pt" viewBox="0 0 300.000000 300.000000"
 preserveAspectRatio="xMidYMid meet">
<metadata>
Created by potrace 1.14, written by Peter Selinger 2001-2017
</metadata>
<g transform="translate(0.000000,300.000000) scale(0.100000,-0.100000)"
fill="#000000" stroke="none">
<path d="M1327 2495 c-247 -47 -463 -177 -619 -374 -75 -93 -161 -269 -190
-386 -30 -121 -32 -341 -4 -460 88 -383 388 -683 771 -771 111 -26 329 -26
440 0 383 88 683 388 771 771 26 111 26 329 0 440 -87 376 -378 674 -751 766
-108 27 -313 34 -418 14z m-93 -486 c54 -15 117 -81 144 -152 26 -70 59 -224
68 -325 4 -42 11 -72 18 -72 6 0 23 33 38 73 65 173 216 367 334 429 66 36
154 58 226 58 128 0 142 -64 83 -380 -68 -364 -76 -421 -69 -490 3 -36 12 -83
20 -105 7 -22 14 -43 14 -47 0 -17 -104 -59 -157 -64 -77 -7 -139 23 -168 81
-30 59 -25 222 12 443 33 195 28 212 -34 115 -71 -110 -151 -326 -169 -456
-10 -72 -76 -117 -173 -117 -45 0 -91 48 -120 124 -28 74 -58 251 -67 390 -6
96 -15 128 -31 113 -12 -12 -63 -300 -69 -387 -6 -89 4 -161 31 -233 12 -29
-93 -72 -177 -72 -80 0 -111 19 -145 85 -38 74 -27 233 46 634 l20 109 -40 78
-39 79 42 22 c117 62 166 77 253 77 39 1 87 -4 109 -10z"/>
</g>
</svg>
